<?xml version="1.0" encoding="iso-8859-1"?>
<!-- Generator: Adobe Illustrator 19.0.0, SVG Export Plug-In . SVG Version: 6.00 Build 0)  -->
<svg version="1.1" id="Layer_1" xmlns="http://www.w3.org/2000/svg" xmlns:xlink="http://www.w3.org/1999/xlink" x="0px" y="0px"
	 viewBox="0 0 488.071 488.071" style="enable-background:new 0 0 488.071 488.071;" xml:space="preserve">
<g>
	<g>
		<path d="M487.5,381.229c-1.7-5.2-7.4-8.1-12.6-6.3l-9.4,3.1v-61.3l15.7-5.2c2.9-1,5.2-3.2,6.3-6.2c1-2.9,0.7-6.1-1-8.7l-187.6-292
			c-2.5-3.8-7.2-5.5-11.6-4.1L6.8,94.129c-4.1,1.4-6.8,5.2-6.8,9.5v93.6c0,2,0.6,3.9,1.7,5.5l186.6,280.8c1.9,2.8,5,4.5,8.3,4.5
			c1.1,0,2.1-0.2,3.2-0.5l281.4-93.6C486.4,392.129,489.2,386.529,487.5,381.229L487.5,381.229z M187.6,446.429L20,194.229v-59.5
			l166.8,262.6c0.1,0.5,0.2,1,0.4,1.5c0.1,0.4,0.3,0.7,0.4,1.1V446.429z M445.5,384.729l-237.9,79.1v-20.1l237.9-81.2V384.729z
			 M445.5,341.429l-237.9,81.2v-20l237.9-79.1V341.429z M462.6,296.629l-261,86.8L27,108.529l259.2-86.5L462.6,296.629
			L462.6,296.629z"/>
	</g>
</g>
<g>
</g>
<g>
</g>
<g>
</g>
<g>
</g>
<g>
</g>
<g>
</g>
<g>
</g>
<g>
</g>
<g>
</g>
<g>
</g>
<g>
</g>
<g>
</g>
<g>
</g>
<g>
</g>
<g>
</g>
</svg>
