<?xml version="1.0" encoding="UTF-8" standalone="no"?>
<!-- Generator: Adobe Illustrator 16.0.0, SVG Export Plug-In . SVG Version: 6.00 Build 0)  -->

<svg
   xmlns:dc="http://purl.org/dc/elements/1.1/"
   xmlns:cc="http://creativecommons.org/ns#"
   xmlns:rdf="http://www.w3.org/1999/02/22-rdf-syntax-ns#"
   xmlns:svg="http://www.w3.org/2000/svg"
   xmlns="http://www.w3.org/2000/svg"
   xmlns:sodipodi="http://sodipodi.sourceforge.net/DTD/sodipodi-0.dtd"
   xmlns:inkscape="http://www.inkscape.org/namespaces/inkscape"
   version="1.1"
   id="Capa_1"
   x="0px"
   y="0px"
   width="470.586px"
   height="470.586px"
   viewBox="0 0 470.586 470.586"
   style="enable-background:new 0 0 470.586 470.586;"
   xml:space="preserve"
   sodipodi:docname="008-document-random.svg"
   inkscape:version="0.92.2 5c3e80d, 2017-08-06"><metadata
     id="metadata41"><rdf:RDF><cc:Work
         rdf:about=""><dc:format>image/svg+xml</dc:format><dc:type
           rdf:resource="http://purl.org/dc/dcmitype/StillImage" /><dc:title></dc:title></cc:Work></rdf:RDF></metadata><defs
     id="defs39" /><sodipodi:namedview
     pagecolor="#ffffff"
     bordercolor="#666666"
     borderopacity="1"
     objecttolerance="10"
     gridtolerance="10"
     guidetolerance="10"
     inkscape:pageopacity="0"
     inkscape:pageshadow="2"
     inkscape:window-width="1920"
     inkscape:window-height="1021"
     id="namedview37"
     showgrid="false"
     inkscape:zoom="0.50150238"
     inkscape:cx="29.910127"
     inkscape:cy="235.293"
     inkscape:window-x="0"
     inkscape:window-y="0"
     inkscape:window-maximized="1"
     inkscape:current-layer="Capa_1" /><g
     id="g4"><path
       d="M327.081,0H90.231c-15.9,0-28.85,12.959-28.85,28.859v412.863c0,15.924,12.95,28.863,28.85,28.863H380.35   c15.911,0,28.855-12.939,28.855-28.863V89.234L327.081,0z M333.891,43.187l35.996,39.118h-35.996V43.187z M384.978,441.723   c0,2.542-2.087,4.629-4.628,4.629H90.231c-2.547,0-4.616-2.087-4.616-4.629V28.859c0-2.548,2.069-4.613,4.616-4.613h219.414v70.181   c0,6.682,5.443,12.099,12.129,12.099h63.198v335.196H384.978z"
       id="path2" /></g><g
     id="g6" /><g
     id="g8" /><g
     id="g10" /><g
     id="g12" /><g
     id="g14" /><g
     id="g16" /><g
     id="g18" /><g
     id="g20" /><g
     id="g22" /><g
     id="g24" /><g
     id="g26" /><g
     id="g28" /><g
     id="g30" /><g
     id="g32" /><g
     id="g34" /><g
     aria-label="?"
     transform="matrix(1.7733854,0,0,1.7733854,-121.94319,-110.40787)"
     style="font-style:normal;font-weight:normal;font-size:15px;line-height:125%;font-family:sans-serif;letter-spacing:0px;word-spacing:0px;fill:#000000;fill-opacity:1;stroke:none;stroke-width:0.5638932px;stroke-linecap:butt;stroke-linejoin:miter;stroke-opacity:1"
     id="flowRoot4537"><path
       d="m 202.30706,220.47409 c 0.576,-13.44 2.496,-16.704 14.208,-25.92 14.784,-11.328 16.512,-12.672 17.856,-13.824 6.72,-5.76 10.56,-14.592 10.56,-23.808 0,-20.928 -16.896,-34.176 -43.776,-34.176 -25.344,0 -43.2,12.288 -43.2,29.952 0,10.368 7.68,17.856 18.24,17.856 9.792,0 16.512,-6.336 16.512,-15.552 0,-4.992 -2.112,-9.408 -6.144,-12.288 -3.648,-2.88 -3.648,-2.88 -3.648,-4.224 0,-2.88 4.224,-4.8 10.176,-4.8 11.52,0 18.048,7.488 18.048,21.12 0,7.872 -2.88,17.664 -7.68,26.304 -10.56,18.816 -12.096,22.656 -12.096,31.296 0,1.92 0.192,4.992 0.576,8.064 z m -4.8,10.56 c -9.984,0 -18.048,8.064 -18.048,18.048 0,9.792 8.064,18.048 17.856,18.048 10.176,0 18.24,-8.064 18.24,-18.048 0,-9.984 -8.064,-18.048 -18.048,-18.048 z"
       style="font-style:normal;font-variant:normal;font-weight:bold;font-stretch:normal;font-size:192px;font-family:C059;-inkscape-font-specification:'C059 Bold';stroke-width:0.5638932px"
       id="path4605" /></g></svg>