<?xml version="1.0" encoding="UTF-8" standalone="no"?>
<!-- Generator: Adobe Illustrator 16.0.0, SVG Export Plug-In . SVG Version: 6.00 Build 0)  -->

<svg
   xmlns:dc="http://purl.org/dc/elements/1.1/"
   xmlns:cc="http://creativecommons.org/ns#"
   xmlns:rdf="http://www.w3.org/1999/02/22-rdf-syntax-ns#"
   xmlns:svg="http://www.w3.org/2000/svg"
   xmlns="http://www.w3.org/2000/svg"
   xmlns:sodipodi="http://sodipodi.sourceforge.net/DTD/sodipodi-0.dtd"
   xmlns:inkscape="http://www.inkscape.org/namespaces/inkscape"
   version="1.1"
   id="Capa_1"
   x="0px"
   y="0px"
   width="466.94711"
   height="466.94711"
   viewBox="0 0 466.94711 466.94713"
   xml:space="preserve"
   sodipodi:docname="019-D.svg"
   inkscape:version="0.92.2 5c3e80d, 2017-08-06"><sodipodi:namedview
     pagecolor="#ffffff"
     bordercolor="#666666"
     borderopacity="1"
     objecttolerance="10"
     gridtolerance="10"
     guidetolerance="10"
     inkscape:pageopacity="0"
     inkscape:pageshadow="2"
     inkscape:window-width="1920"
     inkscape:window-height="1021"
     id="namedview37"
     showgrid="false"
     inkscape:zoom="0.50150238"
     inkscape:cx="-400.62119"
     inkscape:cy="42.620418"
     inkscape:window-x="0"
     inkscape:window-y="0"
     inkscape:window-maximized="1"
     inkscape:current-layer="g4641"
     fit-margin-top="0"
     fit-margin-left="0"
     fit-margin-right="0"
     fit-margin-bottom="0" /><metadata
     id="metadata41"><rdf:RDF><cc:Work
         rdf:about=""><dc:format>image/svg+xml</dc:format><dc:type
           rdf:resource="http://purl.org/dc/dcmitype/StillImage" /><dc:title></dc:title></cc:Work></rdf:RDF></metadata><defs
     id="defs39" /><g
     id="g4641"
     transform="matrix(4.8115792,0,0,4.8115792,-904.47978,66.378733)"
     style="stroke-width:0.20783196"><g
       id="g931"
       transform="matrix(4.2228044,0,0,4.2228044,-603.29773,-251.86321)"
       style="stroke-width:0.04921657"><g
         word-spacing="normal"
         letter-spacing="normal"
         font-size-adjust="none"
         font-stretch="normal"
         font-weight="normal"
         font-variant="normal"
         font-style="normal"
         stroke-miterlimit="10.433"
         xml:space="preserve"
         transform="matrix(0.6670673,0,0,-0.6670673,-116.73678,350.21033)"
         id="content"
         style="font-style:normal;font-variant:normal;font-weight:normal;font-stretch:normal;letter-spacing:normal;word-spacing:normal;text-anchor:start;fill:none;fill-opacity:1;fill-rule:evenodd;stroke:#000000;stroke-width:0.0121255;stroke-linecap:butt;stroke-linejoin:miter;stroke-miterlimit:10.43299961;stroke-dasharray:none;stroke-dashoffset:0;stroke-opacity:1"><path
           id="path928"
           d="m 458,440.32 h -0.16 -0.16 -0.08 -0.08 l -0.08,-0.01 h -0.08 l -0.07,-0.01 h -0.07 l -0.07,-0.01 -0.07,-0.01 -0.07,-0.02 -0.06,-0.01 -0.06,-0.02 -0.06,-0.02 -0.06,-0.02 -0.06,-0.02 -0.05,-0.03 -0.04,-0.03 -0.05,-0.04 -0.04,-0.04 -0.04,-0.04 -0.04,-0.04 -0.03,-0.05 -0.01,-0.03 -0.01,-0.02 -0.02,-0.03 -0.01,-0.03 -0.01,-0.03 -0.01,-0.03 -0.01,-0.03 v -0.04 l -0.01,-0.03 v -0.04 l -0.01,-0.04 v -0.04 -0.03 -0.05 c 0,-0.84 0.95,-0.84 1.34,-0.84 2.59,0 2.8,-0.41 2.8,-2.84 v -24.97 l 1.73,-0.1 v 25.16 c 0,0.66 0,1.84 -0.39,2.75 h 5.67 c -0.64,-0.75 -0.64,-1.84 -0.64,-2.55 l 1.74,-0.15 c 0,1.11 0,1.54 0.9,2.09 0.44,0.36 1.35,0.61 2.39,0.61 4.19,0 9.32,-3.69 9.32,-14.8 0,-6.33 -1.3,-15.84 -9.66,-15.84 -2.95,0 -2.95,1.73 -2.95,2.69 v 25.25 l -1.74,0.15 v -25.56 c 0,-0.75 0,-1.73 0.64,-2.53 h -5.67 c 0.39,0.89 0.39,2.09 0.39,2.73 l -1.73,0.1 c 0,-2.44 -0.21,-2.83 -2.75,-2.83 -0.5,0 -1.39,0 -1.39,-0.86 0,-0.89 0.79,-0.89 1.68,-0.89 h 14.36 c 8.72,0 17.58,5.44 17.58,17.69 h -1.73 c 0,-8.47 -4.6,-13.05 -9.52,-14.8 3.24,3.39 4.24,8.92 4.24,14.7 0,7.17 -1.96,11.11 -4.49,13.8 h 0.05 c 7.12,-2.3 9.72,-7.78 9.72,-13.7 h 1.73 c 0,11.9 -9.47,16.43 -17.53,16.43 z"
           inkscape:connector-curvature="0"
           style="fill:#000000;stroke-width:0" /></g></g></g></svg>