<?xml version="1.0" encoding="UTF-8" standalone="no"?>
<!-- Generator: Adobe Illustrator 16.0.0, SVG Export Plug-In . SVG Version: 6.00 Build 0)  -->

<svg
   xmlns:dc="http://purl.org/dc/elements/1.1/"
   xmlns:cc="http://creativecommons.org/ns#"
   xmlns:rdf="http://www.w3.org/1999/02/22-rdf-syntax-ns#"
   xmlns:svg="http://www.w3.org/2000/svg"
   xmlns="http://www.w3.org/2000/svg"
   xmlns:sodipodi="http://sodipodi.sourceforge.net/DTD/sodipodi-0.dtd"
   xmlns:inkscape="http://www.inkscape.org/namespaces/inkscape"
   version="1.1"
   id="Capa_1"
   x="0px"
   y="0px"
   width="470.586px"
   height="470.586px"
   viewBox="0 0 470.586 470.586"
   style="enable-background:new 0 0 470.586 470.586;"
   xml:space="preserve"
   sodipodi:docname="014-div.svg"
   inkscape:version="0.92.2 5c3e80d, 2017-08-06"><sodipodi:namedview
     pagecolor="#ffffff"
     bordercolor="#666666"
     borderopacity="1"
     objecttolerance="10"
     gridtolerance="10"
     guidetolerance="10"
     inkscape:pageopacity="0"
     inkscape:pageshadow="2"
     inkscape:window-width="1920"
     inkscape:window-height="1021"
     id="namedview37"
     showgrid="false"
     inkscape:zoom="1.0030048"
     inkscape:cx="215.18188"
     inkscape:cy="263.96566"
     inkscape:window-x="0"
     inkscape:window-y="0"
     inkscape:window-maximized="1"
     inkscape:current-layer="g4641" /><metadata
     id="metadata41"><rdf:RDF><cc:Work
         rdf:about=""><dc:format>image/svg+xml</dc:format><dc:type
           rdf:resource="http://purl.org/dc/dcmitype/StillImage" /><dc:title></dc:title></cc:Work></rdf:RDF></metadata><defs
     id="defs39"><clipPath
       id="clipPath5312"
       clipPathUnits="userSpaceOnUse"><rect
         transform="scale(1,-1)"
         y="-448.86108"
         x="446.66141"
         height="77.672798"
         width="112.19404"
         id="rect5314"
         style="fill:none;fill-opacity:1;stroke:#000000;stroke-width:0.30915153;stroke-linecap:round;stroke-linejoin:round;stroke-miterlimit:4;stroke-dasharray:none;stroke-dashoffset:0;stroke-opacity:1" /></clipPath></defs><g
     style="stroke-width:0.20783196"
     transform="matrix(4.8115792,0,0,4.8115792,-902.66028,-108.6969)"
     id="g4641"><g
       style="font-style:normal;font-variant:normal;font-weight:normal;font-stretch:normal;letter-spacing:normal;word-spacing:normal;text-anchor:start;fill:none;fill-opacity:1;fill-rule:evenodd;stroke:#000000;stroke-width:0.141958;stroke-linecap:butt;stroke-linejoin:miter;stroke-miterlimit:10.43299961;stroke-dasharray:none;stroke-dashoffset:0;stroke-opacity:1"
       id="g5933"
       transform="matrix(0.98422279,0,0,-0.98422279,-262.60057,483.61104)"
       xml:space="preserve"
       stroke-miterlimit="10.433"
       font-style="normal"
       font-variant="normal"
       font-weight="normal"
       font-stretch="normal"
       font-size-adjust="none"
       letter-spacing="normal"
       word-spacing="normal"><path
         clip-path="url(#clipPath5312)"
         style="fill:#000000;stroke-width:0"
         inkscape:connector-curvature="0"
         d="m 585.67,421.25 0.03,0.13 0.03,0.15 0.05,0.16 0.04,0.18 0.05,0.19 0.06,0.21 0.07,0.22 0.07,0.22 0.08,0.23 0.09,0.24 0.09,0.25 0.11,0.24 0.11,0.25 0.12,0.25 0.13,0.25 0.14,0.25 0.14,0.24 0.16,0.24 0.17,0.23 0.17,0.22 0.19,0.22 0.2,0.2 0.21,0.19 0.22,0.18 0.23,0.16 0.25,0.14 0.12,0.07 0.13,0.06 0.13,0.05 0.14,0.05 0.14,0.05 0.14,0.04 0.15,0.03 0.15,0.03 0.15,0.02 0.15,0.02 0.16,0.01 h 0.16 c 0.25,0 1.44,0 2.49,-0.64 -1.39,-0.25 -2.39,-1.5 -2.39,-2.69 0,-0.79 0.55,-1.75 1.89,-1.75 1.09,0 2.69,0.89 2.69,2.89 0,2.6 -2.94,3.28 -4.63,3.28 -2.89,0 -4.64,-2.64 -5.23,-3.78 -1.25,3.28 -3.94,3.78 -5.38,3.78 -5.19,0 -8.03,-6.42 -8.03,-7.67 0,-0.5 0.5,-0.5 0.61,-0.5 0.39,0 0.55,0.11 0.64,0.55 1.69,5.28 4.99,6.53 6.67,6.53 0.96,0 2.69,-0.44 2.69,-3.33 0,-1.54 -0.84,-4.89 -2.69,-11.86 -0.79,-3.09 -2.53,-5.18 -4.73,-5.18 -0.3,0 -1.44,0 -2.48,0.65 1.25,0.24 2.34,1.28 2.34,2.69 0,1.34 -1.09,1.73 -1.84,1.73 -1.5,0 -2.75,-1.29 -2.75,-2.89 0,-2.28 2.5,-3.28 4.68,-3.28 3.3,0 5.08,3.49 5.24,3.78 0.59,-1.84 2.39,-3.78 5.37,-3.78 5.14,0 7.99,6.42 7.99,7.67 0,0.5 -0.46,0.5 -0.61,0.5 -0.44,0 -0.55,-0.2 -0.64,-0.54 -1.65,-5.33 -5.03,-6.53 -6.63,-6.53 -1.95,0 -2.75,1.59 -2.75,3.29 0,1.1 0.3,2.19 0.86,4.38 z"
         id="path4638" /><g
         id="g5931"
         style="stroke-width:0.141958"><g
           word-spacing="normal"
           letter-spacing="normal"
           font-size-adjust="none"
           font-stretch="normal"
           font-weight="normal"
           font-variant="normal"
           font-style="normal"
           stroke-miterlimit="10.433"
           xml:space="preserve"
           transform="matrix(0.67226571,0,0,-0.67226571,-117.6465,352.9395)"
           id="g5985"
           style="font-style:normal;font-variant:normal;font-weight:normal;font-stretch:normal;letter-spacing:normal;word-spacing:normal;text-anchor:start;fill:none;fill-opacity:1;fill-rule:evenodd;stroke:#000000;stroke-width:0.141958;stroke-linecap:butt;stroke-linejoin:miter;stroke-miterlimit:10.43299961;stroke-dasharray:none;stroke-dashoffset:0;stroke-opacity:1"><g
             id="g5983"
             style="stroke-width:0.141958"><g
               id="g6053"
               transform="matrix(1.5019142,0,0,-1.5019142,167.30371,530.89021)"
               xml:space="preserve"
               stroke-miterlimit="10.433"
               font-style="normal"
               font-variant="normal"
               font-weight="normal"
               font-stretch="normal"
               font-size-adjust="none"
               letter-spacing="normal"
               word-spacing="normal"
               style="font-style:normal;font-variant:normal;font-weight:normal;font-stretch:normal;letter-spacing:normal;word-spacing:normal;text-anchor:start;fill:none;fill-opacity:1;fill-rule:evenodd;stroke:#000000;stroke-width:0.06354123;stroke-linecap:butt;stroke-linejoin:miter;stroke-miterlimit:10.43299961;stroke-dasharray:none;stroke-dashoffset:0;stroke-opacity:1"><path
                 d="m 478.08,429.42 v 0.15 l -0.01,0.15 -0.02,0.14 -0.03,0.15 -0.03,0.15 -0.04,0.14 -0.05,0.14 -0.06,0.14 -0.06,0.14 -0.07,0.13 -0.07,0.13 -0.08,0.13 -0.09,0.13 -0.09,0.12 -0.1,0.11 -0.1,0.12 -0.11,0.1 -0.11,0.11 -0.12,0.09 -0.13,0.1 -0.13,0.08 -0.13,0.08 -0.14,0.08 -0.14,0.06 -0.15,0.06 -0.15,0.06 -0.15,0.04 -0.16,0.04 -0.16,0.03 -0.17,0.02 -0.16,0.01 -0.18,0.01 c -1.89,0 -3.18,-1.55 -3.18,-3.14 0,-1.6 1.34,-3.14 3.18,-3.14 1.91,0 3.19,1.54 3.19,3.14 z"
                 id="path5970"
                 inkscape:connector-curvature="0"
                 style="fill:#000000;stroke-width:0" /><path
                 d="m 478.08,407.89 v 0.15 l -0.01,0.14 -0.02,0.15 -0.03,0.15 -0.03,0.14 -0.04,0.15 -0.05,0.14 -0.06,0.14 -0.06,0.14 -0.07,0.13 -0.07,0.13 -0.08,0.13 -0.09,0.13 -0.09,0.12 -0.1,0.11 -0.1,0.11 -0.11,0.11 -0.11,0.1 -0.12,0.1 -0.13,0.09 -0.13,0.09 -0.13,0.08 -0.14,0.07 -0.14,0.07 -0.15,0.06 -0.15,0.05 -0.15,0.05 -0.16,0.04 -0.16,0.03 -0.17,0.02 -0.16,0.01 -0.18,0.01 c -1.89,0 -3.18,-1.55 -3.18,-3.14 0,-1.6 1.34,-3.13 3.18,-3.13 1.91,0 3.19,1.53 3.19,3.13 z"
                 id="path5972"
                 inkscape:connector-curvature="0"
                 style="fill:#000000;stroke-width:0" /><path
                 d="m 460,419.65 h -0.15 -0.16 -0.16 l -0.08,-0.01 h -0.08 l -0.07,-0.01 -0.08,-0.01 -0.07,-0.01 -0.07,-0.01 -0.07,-0.02 -0.07,-0.01 -0.06,-0.02 -0.07,-0.02 -0.06,-0.03 -0.06,-0.03 -0.05,-0.03 -0.05,-0.03 -0.05,-0.04 -0.05,-0.04 -0.04,-0.05 -0.04,-0.05 -0.02,-0.03 -0.02,-0.02 -0.01,-0.03 -0.02,-0.03 -0.01,-0.04 -0.01,-0.03 -0.01,-0.03 -0.02,-0.04 v -0.03 l -0.01,-0.04 -0.01,-0.04 -0.01,-0.04 v -0.04 -0.05 l -0.01,-0.04 v -0.05 c 0,-1 0.91,-1 1.75,-1 h 29.8 c 0.84,0 1.74,0 1.74,1 0,1 -0.9,1 -1.74,1 z"
                 id="path5974"
                 inkscape:connector-curvature="0"
                 style="fill:#000000;stroke-width:0" /><path
                 d="m 512.12,408.84 v 0.13 l -0.01,0.14 -0.02,0.13 -0.02,0.13 -0.03,0.12 -0.04,0.13 -0.04,0.12 -0.05,0.12 -0.05,0.12 -0.06,0.11 -0.06,0.11 -0.07,0.11 -0.08,0.1 -0.07,0.1 -0.09,0.1 -0.08,0.09 -0.1,0.09 -0.09,0.08 -0.1,0.08 -0.11,0.07 -0.1,0.07 -0.11,0.07 -0.12,0.06 -0.11,0.05 -0.12,0.05 -0.13,0.04 -0.12,0.04 -0.13,0.03 -0.13,0.02 -0.13,0.02 -0.13,0.01 h -0.14 c -1.44,0 -2.64,-1.2 -2.64,-2.64 0,-1.44 1.2,-2.64 2.64,-2.64 1.45,0 2.64,1.2 2.64,2.64 z"
                 id="path5976"
                 inkscape:connector-curvature="0"
                 style="fill:#000000;stroke-width:0" /><path
                 d="m 534.2,408.84 -0.01,0.13 -0.01,0.14 -0.02,0.13 -0.02,0.13 -0.03,0.12 -0.03,0.13 -0.05,0.12 -0.04,0.12 -0.06,0.12 -0.05,0.11 -0.07,0.11 -0.07,0.11 -0.07,0.1 -0.08,0.1 -0.08,0.1 -0.09,0.09 -0.09,0.09 -0.1,0.08 -0.1,0.08 -0.1,0.07 -0.11,0.07 -0.11,0.07 -0.11,0.06 -0.12,0.05 -0.12,0.05 -0.12,0.04 -0.13,0.04 -0.12,0.03 -0.13,0.02 -0.14,0.02 -0.13,0.01 h -0.14 c -1.43,0 -2.64,-1.2 -2.64,-2.64 0,-1.44 1.21,-2.64 2.64,-2.64 1.46,0 2.65,1.2 2.65,2.64 z"
                 id="path5978"
                 inkscape:connector-curvature="0"
                 style="fill:#000000;stroke-width:0" /><path
                 d="m 556.27,408.84 v 0.13 l -0.01,0.14 -0.02,0.13 -0.02,0.13 -0.03,0.12 -0.04,0.13 -0.04,0.12 -0.05,0.12 -0.05,0.12 -0.06,0.11 -0.06,0.11 -0.07,0.11 -0.07,0.1 -0.08,0.1 -0.08,0.1 -0.09,0.09 -0.09,0.09 -0.1,0.08 -0.1,0.08 -0.1,0.07 -0.11,0.07 -0.11,0.07 -0.11,0.06 -0.12,0.05 -0.12,0.05 -0.12,0.04 -0.13,0.04 -0.13,0.03 -0.13,0.02 -0.13,0.02 -0.13,0.01 h -0.14 c -1.43,0 -2.64,-1.2 -2.64,-2.64 0,-1.44 1.21,-2.64 2.64,-2.64 1.46,0 2.64,1.2 2.64,2.64 z"
                 id="path5980"
                 inkscape:connector-curvature="0"
                 style="fill:#000000;stroke-width:0" /></g></g></g></g></g></g></svg>