<?xml version="1.0" encoding="UTF-8" standalone="no"?>
<!-- Generator: Adobe Illustrator 16.0.0, SVG Export Plug-In . SVG Version: 6.00 Build 0)  -->

<svg
   xmlns:dc="http://purl.org/dc/elements/1.1/"
   xmlns:cc="http://creativecommons.org/ns#"
   xmlns:rdf="http://www.w3.org/1999/02/22-rdf-syntax-ns#"
   xmlns:svg="http://www.w3.org/2000/svg"
   xmlns="http://www.w3.org/2000/svg"
   xmlns:sodipodi="http://sodipodi.sourceforge.net/DTD/sodipodi-0.dtd"
   xmlns:inkscape="http://www.inkscape.org/namespaces/inkscape"
   version="1.1"
   id="Capa_1"
   x="0px"
   y="0px"
   width="466.94711"
   height="466.94711"
   viewBox="0 0 466.94711 466.94713"
   xml:space="preserve"
   sodipodi:docname="018-Q.svg"
   inkscape:version="0.92.2 5c3e80d, 2017-08-06"><sodipodi:namedview
     pagecolor="#ffffff"
     bordercolor="#666666"
     borderopacity="1"
     objecttolerance="10"
     gridtolerance="10"
     guidetolerance="10"
     inkscape:pageopacity="0"
     inkscape:pageshadow="2"
     inkscape:window-width="1920"
     inkscape:window-height="1021"
     id="namedview37"
     showgrid="false"
     inkscape:zoom="0.50150238"
     inkscape:cx="-400.62119"
     inkscape:cy="42.620418"
     inkscape:window-x="0"
     inkscape:window-y="0"
     inkscape:window-maximized="1"
     inkscape:current-layer="g4641"
     fit-margin-top="0"
     fit-margin-left="0"
     fit-margin-right="0"
     fit-margin-bottom="0" /><metadata
     id="metadata41"><rdf:RDF><cc:Work
         rdf:about=""><dc:format>image/svg+xml</dc:format><dc:type
           rdf:resource="http://purl.org/dc/dcmitype/StillImage" /><dc:title></dc:title></cc:Work></rdf:RDF></metadata><defs
     id="defs39" /><g
     style="stroke-width:0.20783196"
     transform="matrix(4.8115792,0,0,4.8115792,-904.47978,66.378733)"
     id="g4641"><g
       id="g873"
       transform="matrix(3.3155858,0,0,3.3155858,-426.78033,-199.09526)"
       style="stroke-width:0.06268333"><g
         id="content"
         transform="matrix(0.6670673,0,0,-0.6670673,-116.73678,350.21033)"
         xml:space="preserve"
         stroke-miterlimit="10.433"
         font-style="normal"
         font-variant="normal"
         font-weight="normal"
         font-stretch="normal"
         font-size-adjust="none"
         letter-spacing="normal"
         word-spacing="normal"
         style="font-style:normal;font-variant:normal;font-weight:normal;font-stretch:normal;letter-spacing:normal;word-spacing:normal;text-anchor:start;fill:none;fill-opacity:1;fill-rule:evenodd;stroke:#000000;stroke-width:0.06268333;stroke-linecap:butt;stroke-linejoin:miter;stroke-miterlimit:10.43299961;stroke-dasharray:none;stroke-dashoffset:0;stroke-opacity:1"><path
           d="m 479.33,405.75 0.66,0.14 0.65,0.18 0.64,0.19 0.64,0.23 0.63,0.24 0.62,0.27 0.61,0.3 0.6,0.32 0.58,0.35 0.57,0.37 0.56,0.4 0.54,0.42 0.52,0.45 0.51,0.47 0.49,0.51 0.47,0.52 0.45,0.56 0.42,0.58 0.41,0.6 0.38,0.64 0.35,0.66 0.33,0.69 0.3,0.71 0.28,0.74 0.25,0.77 0.21,0.8 0.19,0.82 0.16,0.86 0.12,0.88 0.09,0.91 0.05,0.93 0.02,0.97 -1.74,0.06 c 0,-10.17 -6.17,-13.86 -9.17,-15 3.1,3.64 3.89,9.47 3.89,14.94 0,4.89 -0.59,11.13 -3.84,14.91 l 0.06,0.04 c 3.33,-1.25 9.06,-5.23 9.06,-14.89 l 1.74,-0.06 c 0,12.56 -8.81,18.05 -17.74,18.05 v -1.75 c 8.08,0 8.97,-10.57 8.97,-16.24 0,-5.98 -0.98,-16.29 -8.97,-16.29 v -1.75 c 0.25,0 1.3,0 2.71,0.15 1.34,-3.14 3.67,-5.03 6.17,-6.03 0.5,-0.2 0.55,-0.2 0.55,-0.25 0,-0.09 -0.89,-0.09 -1.55,-0.09 -4.23,0 -8.56,1.98 -11.16,6.47 v 0 c 1.39,-0.25 3.24,-0.25 3.28,-0.25 v 1.75 0 c -8.06,0 -8.96,10.56 -8.96,16.23 l -1.74,0.06 c 0,-4.89 0.6,-11.11 3.89,-15 -3.44,1.3 -9.17,5.28 -9.17,14.94 0,10.17 6.17,13.86 9.06,14.95 l 0.05,-0.04 c -3.03,-3.55 -3.83,-9.38 -3.83,-14.85 l 1.74,-0.06 c 0,5.98 1,16.3 8.96,16.3 v 1.75 c -9.1,0 -17.73,-5.74 -17.73,-17.99 0,-10.67 6.38,-15.75 12.27,-17.29 2.23,-5.13 7.17,-8.72 13.34,-8.72 2.5,0 5.23,0.5 7.83,1.5 0.89,0.34 1.39,0.54 1.39,1.14 0,0.61 -0.45,0.9 -0.85,0.9 -0.1,0 -0.15,0 -0.5,-0.11 -1.39,-0.34 -1.93,-0.34 -2.73,-0.34 -4.59,0 -7.44,2.89 -8.58,5.38 z"
           id="path870"
           inkscape:connector-curvature="0"
           style="fill:#000000;stroke-width:0" /></g></g></g></svg>